# This file uses centimeters as units for non-parametric coordinates.

mtllib Straight.mtl
g default
v -24.999996 0.000000 24.999996
v -17.926754 0.000000 24.999996
v 17.926760 0.000000 24.999996
v 24.999998 0.000000 24.999996
v -24.999996 0.000000 -24.999996
v -17.926754 0.000000 -24.999996
v 17.926760 0.000000 -24.999996
v 24.999998 0.000000 -24.999996
v -17.926754 -0.713400 24.999996
v 17.926760 -0.713400 24.999996
v 17.926760 -0.713400 -24.999996
v -17.926754 -0.713400 -24.999996
v 0.000002 -0.713400 24.999996
v 0.000002 -0.713400 -24.999996
vt 0.001992 0.001879
vt 0.134892 0.001879
vt 0.134892 0.941331
vt 0.001992 0.941331
vt 0.143113 0.001879
vt 0.479940 0.001879
vt 0.479940 0.941331
vt 0.143113 0.941331
vt 0.823553 0.001879
vt 0.956452 0.001879
vt 0.956452 0.941331
vt 0.823553 0.941331
vt 0.977877 0.001879
vt 0.977877 0.941331
vt 0.964473 0.941331
vt 0.964473 0.001879
vt 0.998008 0.001879
vt 0.998008 0.941331
vt 0.984604 0.941331
vt 0.984604 0.001879
vt 0.816766 0.001879
vt 0.816766 0.941331
vn 0.000000 1.000000 0.000000
vn 0.707107 0.707107 0.000000
vn 0.707107 0.707107 0.000000
vn 0.000000 1.000000 0.000000
vn 0.707107 0.707107 0.000000
vn 0.000000 1.000000 0.000000
vn 0.000000 1.000000 0.000000
vn 0.707107 0.707107 0.000000
vn -0.707107 0.707107 0.000000
vn 0.000000 1.000000 0.000000
vn 0.000000 1.000000 0.000000
vn -0.707107 0.707107 0.000000
vn -0.707107 0.707107 0.000000
vn -0.707107 0.707107 0.000000
vn -0.707107 0.707107 0.000000
vn -0.707107 0.707107 0.000000
vn 0.707107 0.707107 0.000000
vn 0.707107 0.707107 0.000000
vn 0.707107 0.707107 0.000000
vn 0.707107 0.707107 0.000000
vn 0.000000 1.000000 0.000000
vn -0.707107 0.707107 0.000000
vn -0.707107 0.707107 0.000000
vn 0.000000 1.000000 0.000000
s off
g Straight:pPlane1
usemtl Straight:pPlane1SG
f 1/1/1 2/2/2 6/3/3 5/4/4
f 9/5/5 13/6/6 14/7/7 12/8/8
f 3/9/9 4/10/10 8/11/11 7/12/12
f 3/13/13 7/14/14 11/15/15 10/16/16
f 6/17/17 2/18/18 9/19/19 12/20/20
f 13/6/21 10/21/22 11/22/23 14/7/24
